<svg viewBox="0 0 1180 760" xmlns="http://www.w3.org/2000/svg" font-family="'Segoe UI',system-ui,sans-serif">
  <defs>
    <linearGradient id="brand2" x1="0" y1="0" x2="1" y2="0"><stop offset="0" stop-color="#7aa2f7"/><stop offset="1" stop-color="#4ec9b0"/></linearGradient>
  </defs>
  <rect x="0" y="0" width="1180" height="760" rx="12" fill="#0e1116"/>
  <!-- titlebar -->
  <rect x="0" y="0" width="1180" height="34" fill="#0b0e13"/>
  <circle cx="22" cy="17" r="5" fill="#f7768e"/><circle cx="40" cy="17" r="5" fill="#e0af68"/><circle cx="58" cy="17" r="5" fill="#4ec9b0"/>

  <!-- ===== SIDEBAR ===== -->
  <rect x="0" y="34" width="236" height="726" fill="#161b22"/>
  <line x1="236" y1="34" x2="236" y2="760" stroke="#21262d"/>
  <rect x="16" y="50" width="20" height="20" rx="6" fill="url(#brand2)"/>
  <text x="46" y="66" fill="url(#brand2)" font-size="15" font-weight="600">winmux</text>
  <text x="214" y="66" fill="#565f6a" font-size="14" text-anchor="end">‹</text>

  <!-- section label -->
  <text x="18" y="100" fill="#565f6a" font-size="10.5" letter-spacing="0.6">WORKSPACES</text>
  <!-- active ws item -->
  <rect x="10" y="110" width="216" height="34" rx="6" fill="#7aa2f7" fill-opacity="0.12"/>
  <rect x="10" y="110" width="2.5" height="34" rx="2" fill="#7aa2f7"/>
  <circle cx="28" cy="127" r="4" fill="#4ec9b0"/>
  <text x="42" y="131" fill="#e6edf3" font-size="13" font-weight="500">api-server</text>
  <rect x="150" y="118" width="34" height="17" rx="8.5" fill="#7aa2f7" fill-opacity="0.15"/><text x="167" y="130" fill="#7aa2f7" font-size="9.5" text-anchor="middle">SSH</text>
  <circle cx="206" cy="127" r="6" fill="#f7768e" fill-opacity="0.2"/><text x="206" y="130" fill="#f7768e" font-size="9" text-anchor="middle">2</text>
  <!-- other items -->
  <circle cx="28" cy="163" r="4" fill="#7d8590"/><text x="42" y="167" fill="#7d8590" font-size="13">web-frontend</text>
  <rect x="150" y="154" width="52" height="17" rx="8.5" fill="#bb9af7" fill-opacity="0.15"/><text x="176" y="166" fill="#bb9af7" font-size="9.5" text-anchor="middle">BROWSER</text>
  <circle cx="28" cy="197" r="4" fill="#7d8590"/><text x="42" y="201" fill="#7d8590" font-size="13">db-migrations</text>
  <rect x="150" y="188" width="46" height="17" rx="8.5" fill="#4ec9b0" fill-opacity="0.15"/><text x="173" y="200" fill="#4ec9b0" font-size="9.5" text-anchor="middle">SPLIT</text>
  <circle cx="28" cy="231" r="4" fill="#565f6a"/><text x="42" y="235" fill="#7d8590" font-size="13">scratch</text>
  <rect x="150" y="222" width="40" height="17" rx="8.5" fill="#1f2530"/><text x="170" y="234" fill="#7d8590" font-size="9.5" text-anchor="middle">LOCAL</text>

  <!-- add row -->
  <rect x="10" y="262" width="104" height="30" rx="6" fill="none" stroke="#2d333d"/><text x="62" y="282" fill="#7d8590" font-size="12" text-anchor="middle">+ New</text>
  <rect x="122" y="262" width="104" height="30" rx="6" fill="none" stroke="#2d333d"/><text x="174" y="282" fill="#7d8590" font-size="12" text-anchor="middle">🚀 Provision</text>

  <!-- tool rail (IDE-like) -->
  <line x1="10" y1="312" x2="226" y2="312" stroke="#21262d"/>
  <text x="18" y="336" fill="#565f6a" font-size="10.5" letter-spacing="0.6">WORKSPACE TOOLS</text>
  <g fill="#7d8590" font-size="12.5">
    <text x="24" y="366">◨  Diff</text><text x="24" y="396">🗂  Files</text><text x="24" y="426">🔌  Ports</text>
    <text x="24" y="456">📈  Monitor</text><text x="24" y="486">💡  Insights</text><text x="24" y="516">🌐  Browser</text>
  </g>
  <rect x="140" y="352" width="30" height="17" rx="8.5" fill="#e0af68" fill-opacity="0.16"/><text x="155" y="364" fill="#e0af68" font-size="9.5" text-anchor="middle">3</text>
  <rect x="140" y="412" width="30" height="17" rx="8.5" fill="#4ec9b0" fill-opacity="0.16"/><text x="155" y="424" fill="#4ec9b0" font-size="9.5" text-anchor="middle">2</text>

  <!-- sidebar footer -->
  <line x1="10" y1="716" x2="226" y2="716" stroke="#21262d"/>
  <text x="18" y="740" fill="#565f6a" font-size="11">v0.4.3 · connected</text>

  <!-- ===== TOP BAR ===== -->
  <rect x="236" y="34" width="944" height="46" fill="#0e1116"/>
  <line x1="236" y1="80" x2="1180" y2="80" stroke="#21262d"/>
  <text x="258" y="63" fill="#e6edf3" font-size="14" font-weight="600">api-server</text>
  <text x="352" y="63" fill="#7d8590" font-size="12">root@203.0.113.9 · ~/srv</text>
  <!-- top bar buttons -->
  <g>
    <rect x="946" y="46" width="30" height="24" rx="6" fill="#161b22" stroke="#21262d"/><text x="961" y="63" fill="#7d8590" font-size="12" text-anchor="middle">⊟</text>
    <rect x="984" y="46" width="30" height="24" rx="6" fill="#161b22" stroke="#21262d"/><text x="999" y="63" fill="#7d8590" font-size="12" text-anchor="middle">⊞</text>
    <rect x="1022" y="46" width="70" height="24" rx="6" fill="#161b22" stroke="#21262d"/><text x="1057" y="62" fill="#7d8590" font-size="11.5" text-anchor="middle">⌘ Palette</text>
    <rect x="1100" y="46" width="30" height="24" rx="6" fill="#161b22" stroke="#21262d"/><text x="1115" y="63" fill="#7d8590" font-size="13" text-anchor="middle">⚙</text>
  </g>

  <!-- ===== PANE AREA (split) ===== -->
  <!-- pane 1 (active, claude) -->
  <rect x="248" y="92" width="560" height="656" rx="8" fill="#0b0e13" stroke="#7aa2f7" stroke-opacity="0.6"/>
  <rect x="248" y="92" width="560" height="26" rx="8" fill="#161b22"/><rect x="248" y="108" width="560" height="10" fill="#161b22"/>
  <circle cx="266" cy="105" r="3.5" fill="#4ec9b0"/><text x="280" y="109" fill="#e6edf3" font-size="11">claude · ~/srv</text>
  <text x="792" y="109" fill="#565f6a" font-size="12" text-anchor="end">✕</text>
  <g font-family="monospace" font-size="12">
    <text x="266" y="146" fill="#7d8590">$ claude "add rate limiting to /api/login"</text>
    <text x="266" y="172" fill="#4ec9b0">● I'll add a token-bucket limiter to the login route.</text>
    <text x="266" y="196" fill="#e6edf3">  Reading</text><text x="332" y="196" fill="#7aa2f7">src/api/auth.go</text>
    <text x="266" y="220" fill="#e6edf3">  Editing</text><text x="332" y="220" fill="#7aa2f7">src/api/middleware.go</text>
    <text x="266" y="256" fill="#e0af68">  ⚠ wants to run: </text><text x="400" y="256" fill="#e6edf3">go test ./api/...</text>
    <text x="266" y="286" fill="#565f6a">  awaiting permission → see feed ↗</text>
  </g>

  <!-- divider -->
  <rect x="812" y="92" width="4" height="656" fill="#21262d"/>

  <!-- pane 2 (logs) -->
  <rect x="820" y="92" width="348" height="322" rx="8" fill="#0b0e13" stroke="#21262d"/>
  <rect x="820" y="92" width="348" height="26" rx="8" fill="#161b22"/><rect x="820" y="108" width="348" height="10" fill="#161b22"/>
  <circle cx="838" cy="105" r="3.5" fill="#e0af68"/><text x="852" y="109" fill="#7d8590" font-size="11">logs · tail -f</text>
  <g font-family="monospace" font-size="10.5" fill="#7d8590">
    <text x="838" y="144">12:04:01 GET /api/health 200</text>
    <text x="838" y="164">12:04:03 POST /api/login 429</text>
    <text x="838" y="184" fill="#f7768e">12:04:03 rate limit hit: 8.8.8.8</text>
    <text x="838" y="204">12:04:05 GET /api/user 200</text>
  </g>
  <!-- pane 3 (diff) -->
  <rect x="820" y="426" width="348" height="322" rx="8" fill="#0b0e13" stroke="#21262d"/>
  <rect x="820" y="426" width="348" height="26" rx="8" fill="#161b22"/><rect x="820" y="442" width="348" height="10" fill="#161b22"/>
  <circle cx="838" cy="439" r="3.5" fill="#4ec9b0"/><text x="852" y="443" fill="#7d8590" font-size="11">◨ Diff · middleware.go</text>
  <g font-family="monospace" font-size="10.5">
    <rect x="826" y="462" width="336" height="16" fill="#4ec9b0" fill-opacity="0.1"/>
    <text x="838" y="474" fill="#4ec9b0">+ limiter := rate.NewLimiter(5, 10)</text>
    <rect x="826" y="482" width="336" height="16" fill="#4ec9b0" fill-opacity="0.1"/>
    <text x="838" y="494" fill="#4ec9b0">+ if !limiter.Allow() {</text>
    <text x="838" y="514" fill="#7d8590">    return c.Status(429)</text>
    <rect x="826" y="522" width="336" height="16" fill="#f7768e" fill-opacity="0.1"/>
    <text x="838" y="534" fill="#f7768e">- // TODO: throttle</text>
  </g>

  <!-- ===== FEED (inline-end, floating) ===== -->
  <g>
    <rect x="888" y="150" width="264" height="118" rx="8" fill="#161b22" stroke="#e0af68"/>
    <text x="906" y="174" fill="#e0af68" font-size="10.5" font-weight="600">🔐 PERMISSION · pane #1</text>
    <text x="906" y="196" fill="#e6edf3" font-size="12.5" font-weight="600">Run command</text>
    <text x="906" y="214" fill="#7d8590" font-size="11.5" font-family="monospace">go test ./api/...</text>
    <rect x="906" y="228" width="110" height="26" rx="6" fill="#4ec9b0" fill-opacity="0.16"/><text x="961" y="245" fill="#4ec9b0" font-size="11.5" font-weight="600" text-anchor="middle">Allow</text>
    <rect x="1024" y="228" width="110" height="26" rx="6" fill="#f7768e" fill-opacity="0.14"/><text x="1079" y="245" fill="#f7768e" font-size="11.5" font-weight="600" text-anchor="middle">Deny</text>
  </g>

  <text x="708" y="742" fill="#565f6a" font-size="11" text-anchor="middle">Chrome hierarchy: sidebar (workspaces + tools rail) · top bar (context + actions) · pane grid (active pane ringed) · feed (inline-end).</text>
</svg>
